<svg width="914" height="119" viewBox="0 0 914 119" fill="none" xmlns="http://www.w3.org/2000/svg">
<g filter="url(#filter0_d_158_3)">
<path d="M98.5 0H916.5V111H44.4869C27.2378 111 18.0788 90.627 29.5276 77.7253L98.5 0Z" fill="#D9D9D9"/>
</g>
<path d="M569.731 91H523.789V25.156H568.057V38.641H539.134V51.01H566.476V63.751H539.134V77.422H569.731V91ZM639.613 91H619.99L605.575 67.75L591.718 91H572.746L595.81 56.218L574.606 25.156H593.764L606.04 45.616L618.13 25.156H636.637L615.805 56.218L639.613 91ZM711.488 57.799C711.488 78.631 696.236 92.767 675.59 92.767C655.037 92.767 639.785 78.631 639.785 57.799C639.785 36.688 655.037 23.389 675.59 23.389C696.236 23.389 711.488 36.688 711.488 57.799ZM694.469 57.799C694.469 46.267 686.75 37.711 675.59 37.711C664.43 37.711 656.804 46.267 656.804 57.799C656.804 69.703 664.523 78.259 675.59 78.259C686.657 78.259 694.469 69.703 694.469 57.799ZM783.432 57.892C783.432 81.049 764.646 91 746.511 91H721.959V25.156H745.767C764.46 25.156 783.432 32.968 783.432 57.892ZM766.878 57.892C766.878 43.105 756.369 38.734 745.395 38.734H737.49V77.236H745.023C756.369 77.236 766.878 72.586 766.878 57.892ZM809.975 91H793.979V25.156H809.975V91ZM885.897 91H868.227L863.112 78.073H837.63L832.794 91H815.496L843.117 25.156H858.555L885.897 91ZM858.741 65.332L850.557 42.733L842.187 65.332H858.741Z" fill="#3D3D3D"/>
<defs>
<filter id="filter0_d_158_3" x="20.4478" y="0" width="900.052" height="119" filterUnits="userSpaceOnUse" color-interpolation-filters="sRGB">
<feFlood flood-opacity="0" result="BackgroundImageFix"/>
<feColorMatrix in="SourceAlpha" type="matrix" values="0 0 0 0 0 0 0 0 0 0 0 0 0 0 0 0 0 0 127 0" result="hardAlpha"/>
<feOffset dy="4"/>
<feGaussianBlur stdDeviation="2"/>
<feComposite in2="hardAlpha" operator="out"/>
<feColorMatrix type="matrix" values="0 0 0 0 0 0 0 0 0 0 0 0 0 0 0 0 0 0 0.25 0"/>
<feBlend mode="normal" in2="BackgroundImageFix" result="effect1_dropShadow_158_3"/>
<feBlend mode="normal" in="SourceGraphic" in2="effect1_dropShadow_158_3" result="shape"/>
</filter>
</defs>
</svg>
